# xmcd
# 
# Track frame offsets:
#     182
#     14172
#     48492
#     65272
#     100357
#     139955
#     164190
#     199410
#     214932
#     243780
#     271757
# 
# Disc length: 4352
# 
# Revision: 5
# Processed by: cddbd v1.5.2PL0 Copyright (c) Steve Scherf et al.
# Submitted via: fre:ac v1.0.17
# 
DISCID=ac10fe0b
DTITLE=Jimi Hendrix - Blues
DYEAR=1994
DGENRE=Blues
TTITLE0=Hear My Train a Comin'
TTITLE1=Born Under a Bad Sign
TTITLE2=Red House
TTITLE3=Catfish Blues
TTITLE4=Voodoo Chile Blues
TTITLE5=Mannish Boy
TTITLE6=Once I Had a Woman
TTITLE7=Bleeding Heart
TTITLE8=Jelly 292
TTITLE9=Electric Church Red House
TTITLE10=Hear My Train a Comin'
EXTD=
EXTT0=
EXTT1=
EXTT2=
EXTT3=
EXTT4=
EXTT5=
EXTT6=
EXTT7=
EXTT8=
EXTT9=
EXTT10=
PLAYORDER=
